<svg width="39" height="48" viewBox="0 0 39 48" fill="none" xmlns="http://www.w3.org/2000/svg">
<g clip-path="url(#clip0)" filter="url(#filter0_d)">
<path d="M17.4765 39.193C6.10985 22.7368 4 21.0479 4 15C4 6.7157 10.7247 0 19.0201 0C27.3155 0 34.0402 6.7157 34.0402 15C34.0402 21.0479 31.9303 22.7368 20.5637 39.193C19.8178 40.2691 18.2223 40.269 17.4765 39.193Z" fill="#FF5757"/>
<path d="M27.5008 9.75017H25.0007V6.62503C25.0007 6.45926 24.9348 6.30028 24.8176 6.18307C24.7004 6.06585 24.5414 6 24.3756 6H10.625C10.4593 6 10.3003 6.06585 10.1831 6.18307C10.0659 6.30028 10 6.45926 10 6.62503V17.8755C10 18.0413 10.0659 18.2003 10.1831 18.3175C10.3003 18.4347 10.4593 18.5006 10.625 18.5006H11.2501V7.25006H23.7506V14.5629C24.0693 14.4816 24.3968 14.4396 24.7257 14.4379H25.0007V11.0002H27.5008C27.8323 11.0002 28.1503 11.1319 28.3847 11.3664C28.6191 11.6008 28.7508 11.9187 28.7508 12.2503V12.8753H26.2507V14.1254H28.7508V17.2505H27.2508C27.0315 16.7411 26.6678 16.3072 26.2046 16.0023C25.7413 15.6974 25.1989 15.5349 24.6444 15.5349C24.0898 15.5349 23.5475 15.6974 23.0842 16.0023C22.621 16.3072 22.2573 16.7411 22.038 17.2505H17.7691C17.554 16.7374 17.1915 16.2997 16.7276 15.9926C16.2637 15.6855 15.7191 15.523 15.1627 15.5254C14.6341 15.5371 14.1202 15.7016 13.6831 15.999C13.2459 16.2964 12.9043 16.7141 12.6994 17.2015C12.4945 17.6889 12.4351 18.2252 12.5285 18.7457C12.6218 19.2661 12.8639 19.7484 13.2254 20.1342C13.5869 20.52 14.0524 20.7929 14.5657 20.9199C15.0789 21.0469 15.618 21.0225 16.1177 20.8497C16.6174 20.6769 17.0564 20.3632 17.3816 19.9463C17.7068 19.5294 17.9044 19.0273 17.9504 18.5006H21.8755C21.955 19.1842 22.2828 19.8148 22.7968 20.2725C23.3107 20.7302 23.9749 20.9831 24.6631 20.9831C25.3514 20.9831 26.0156 20.7302 26.5295 20.2725C27.0435 19.8148 27.3713 19.1842 27.4508 18.5006H29.3759C29.5416 18.5006 29.7006 18.4347 29.8178 18.3175C29.935 18.2003 30.0009 18.0413 30.0009 17.8755V12.2503C30.0009 11.5872 29.7375 10.9513 29.2686 10.4824C28.7998 10.0136 28.1638 9.75017 27.5008 9.75017ZM15.1627 19.7506C14.9597 19.7638 14.7561 19.7352 14.5646 19.6665C14.373 19.5979 14.1976 19.4907 14.0491 19.3516C13.9007 19.2124 13.7823 19.0443 13.7014 18.8576C13.6205 18.6709 13.5788 18.4696 13.5788 18.2662C13.5788 18.0627 13.6205 17.8614 13.7014 17.6747C13.7823 17.488 13.9007 17.3199 14.0491 17.1808C14.1976 17.0416 14.373 16.9344 14.5646 16.8658C14.7561 16.7972 14.9597 16.7685 15.1627 16.7817C15.3658 16.7685 15.5694 16.7972 15.7609 16.8658C15.9524 16.9344 16.1279 17.0416 16.2763 17.1808C16.4248 17.3199 16.5431 17.488 16.624 17.6747C16.7049 17.8614 16.7467 18.0627 16.7467 18.2662C16.7467 18.4696 16.7049 18.6709 16.624 18.8576C16.5431 19.0443 16.4248 19.2124 16.2763 19.3516C16.1279 19.4907 15.9524 19.5979 15.7609 19.6665C15.5694 19.7352 15.3658 19.7638 15.1627 19.7506ZM24.6444 19.7506C24.3536 19.7359 24.0734 19.6362 23.8387 19.4638C23.6041 19.2914 23.4251 19.0539 23.3241 18.7808C23.2232 18.5077 23.2046 18.2109 23.2707 17.9273C23.3368 17.6437 23.4847 17.3857 23.696 17.1854C23.9073 16.985 24.1728 16.8511 24.4595 16.8002C24.7463 16.7494 25.0416 16.7838 25.309 16.8992C25.5763 17.0146 25.8039 17.2059 25.9636 17.4495C26.1232 17.693 26.2078 17.9781 26.207 18.2693C26.1955 18.6727 26.0246 19.0551 25.7317 19.3328C25.4389 19.6105 25.0479 19.7607 24.6444 19.7506Z" fill="white"/>
</g>
<defs>
<filter id="filter0_d" x="0" y="0" width="38.0402" height="48" filterUnits="userSpaceOnUse" color-interpolation-filters="sRGB">
<feFlood flood-opacity="0" result="BackgroundImageFix"/>
<feColorMatrix in="SourceAlpha" type="matrix" values="0 0 0 0 0 0 0 0 0 0 0 0 0 0 0 0 0 0 127 0"/>
<feOffset dy="4"/>
<feGaussianBlur stdDeviation="2"/>
<feColorMatrix type="matrix" values="0 0 0 0 0 0 0 0 0 0 0 0 0 0 0 0 0 0 0.25 0"/>
<feBlend mode="normal" in2="BackgroundImageFix" result="effect1_dropShadow"/>
<feBlend mode="normal" in="SourceGraphic" in2="effect1_dropShadow" result="shape"/>
</filter>
<clipPath id="clip0">
<rect width="30.0402" height="40" fill="white" transform="translate(4)"/>
</clipPath>
</defs>
</svg>
